<svg xmlns="http://www.w3.org/2000/svg" viewBox="0 0 438.99998 356.99999" width="439" height="357">
  <g transform="translate(0 -484.89)" fill="#1d5b86">
    <path d="M439.511 747.34196l-2.936 1.504c-42.056 19.082-109.949 41.793-194.783 41.793-55.607 0-93.65-11.52-130.441-22.662-34.538-10.459-67.159-20.338-111.351-20.338v13.028c42.192 0 73.884 9.598 107.438 19.76 37.731 11.426 76.748 23.24 134.354 23.24 85.505 0 154.275-22.439 197.719-41.816v-14.509zM439.511 556.92996c-31.307-8.828-75.806-18.918-118.219-18.918-43.394 0-79.412 9.09-114.246 17.881-34.875 8.801-70.936 17.902-114.754 17.902-36.537 0-74.815-9.07-89.226-12.548-1.158-.279-2.178-.692-3.066-.902v13.05c14.911 3.598 54.231 13.066 92.292 13.066 45.496 0 82.384-9.31 118.058-18.312 35.601-8.984 69.227-17.471 110.942-17.471 42.528 0 87.647 10.657 118.219 19.48v-13.228zM24.657 506.11496h8.619v42.49h-8.619v-42.49zM78.194 547.26996c-1.295.446-2.631.8-4.006 1.063-1.376.264-2.772.455-4.188.577-.486.04-.962.07-1.427.091-.465.02-.921.03-1.366.03-5.989 0-11.168-1.791-15.539-5.372s-6.556-8.932-6.556-16.055c0-6.717 2.114-12.058 6.343-16.024 4.228-3.965 10.005-5.949 17.33-5.949 1.375 0 2.641.071 3.794.212 1.153.142 2.276.334 3.369.577.364.122.738.233 1.123.334.384.102.759.212 1.123.334l-.364 7.284c-1.376-.566-2.752-.971-4.127-1.214-1.376-.243-2.813-.364-4.31-.364-4.331 0-7.942 1.265-10.835 3.794-2.894 2.529-4.34 6.161-4.34 10.896 0 4.856 1.275 8.367 3.824 10.531 2.549 2.166 5.361 3.43 8.438 3.794.404.041.798.071 1.184.091.384.021.759.031 1.123.031 1.659 0 3.157-.152 4.492-.456 1.335-.303 2.488-.657 3.459-1.062.162-.04.324-.091.486-.152.161-.061.304-.131.425-.212l.545 7.221zM102.577 506.11496l6.798 11.837 1.942 3.581h.183l1.942-3.581 6.98-11.837h9.408l-12.929 20.274 14.203 22.216h-10.197l-8.134-13.476-1.821-3.278h-.182l-1.821 3.278-8.438 13.476h-9.408l14.204-22.216-12.93-20.274h10.2z"/>
    <path d="M170.388 547.26996c-1.296.446-2.632.8-4.007 1.063-1.376.264-2.772.455-4.188.577-.485.04-.961.07-1.426.091-.466.02-.921.03-1.366.03-5.989 0-11.169-1.791-15.539-5.372-4.37-3.581-6.556-8.932-6.556-16.055 0-6.717 2.114-12.058 6.343-16.024 4.229-3.965 10.006-5.949 17.33-5.949 1.375 0 2.641.071 3.794.212 1.153.142 2.276.334 3.369.577.364.122.737.233 1.123.334.384.102.759.212 1.123.334l-.364 7.284c-1.377-.566-2.753-.971-4.128-1.214-1.376-.243-2.813-.364-4.31-.364-4.331 0-7.942 1.265-10.835 3.794-2.894 2.529-4.34 6.161-4.34 10.896 0 4.856 1.274 8.367 3.823 10.531 2.55 2.166 5.362 3.43 8.438 3.794.404.041.799.071 1.184.091.385.021.759.031 1.123.031 1.659 0 3.156-.152 4.492-.456 1.335-.303 2.488-.657 3.46-1.062.161-.04.323-.091.485-.152.161-.061.304-.131.425-.212l.547 7.221zM150.171 488.22096c-.059.117-.131.232-.218.348-.087.117-.189.233-.305.348-1.565 2.262-3.249 4.176-5.046 5.742-1.799 1.566-4.206 2.349-7.221 2.349-1.625 0-3.162-.218-4.611-.653-1.45-.435-2.755-.914-3.915-1.436-.348-.115-.667-.246-.957-.391-.291-.145-.58-.275-.87-.392-.928-.464-1.885-.87-2.871-1.218s-1.972-.522-2.958-.522c-.521 0-1.087.059-1.696.174-.608.117-1.232.319-1.87.609-.755.348-1.494.813-2.219 1.392-.726.58-1.378 1.305-1.957 2.175l-5.221-3.915c1.508-2.377 3.248-4.437 5.221-6.177 1.971-1.74 4.494-2.61 7.568-2.61.985 0 1.972.087 2.958.261.985.174 1.942.406 2.871.696.348.117.696.232 1.044.348.349.117.666.261.957.435 1.102.406 2.073.827 2.915 1.261.84.435 1.666.798 2.479 1.088.463.174.941.304 1.436.391.491.087 1 .131 1.522.131.521 0 1.058-.057 1.609-.174.55-.115 1.116-.29 1.696-.522.812-.29 1.595-.739 2.349-1.348.753-.609 1.449-1.377 2.088-2.306l5.222 3.916zM72.377 488.22096c-.059.117-.131.232-.218.348-.087.117-.189.233-.305.348-1.565 2.262-3.249 4.176-5.046 5.742-1.799 1.566-4.206 2.349-7.221 2.349-1.625 0-3.162-.218-4.611-.653-1.45-.435-2.755-.914-3.915-1.436-.348-.115-.667-.246-.957-.391-.291-.145-.58-.275-.87-.392-.928-.464-1.885-.87-2.871-1.218s-1.972-.522-2.958-.522c-.521 0-1.087.059-1.696.174-.608.117-1.232.319-1.87.609-.755.348-1.494.813-2.219 1.392-.726.58-1.378 1.305-1.957 2.175l-5.221-3.915c1.508-2.377 3.248-4.437 5.221-6.177 1.971-1.74 4.494-2.61 7.568-2.61.985 0 1.972.087 2.958.261.985.174 1.942.406 2.871.696.348.117.696.232 1.044.348.349.117.666.261.957.435 1.102.406 2.073.827 2.915 1.261.84.435 1.666.798 2.479 1.088.463.174.941.304 1.436.391.491.087 1 .131 1.522.131.521 0 1.058-.057 1.609-.174.55-.115 1.116-.29 1.696-.522.812-.29 1.595-.739 2.349-1.348.753-.609 1.449-1.377 2.088-2.306l5.222 3.916z"/>
    <circle r="7.4549999" cy="634.30298" cx="99.747002"/>
    <path d="M352.885 686.44996c-.651-9.752-3.639-20.122-4.776-22.945 6.632-10.619 8.079-24.349 8.371-28.095.894-11.463-.456-19.25-1.019-20.64 0 0-3.42-.404-8.182-.009-11.987.994-21.088 4.239-31.654 9.244-10.622 5.032-22.973 12.535-30.319 20.185-10.278-1.23-14.273-1.291-20.246-1.209 12.357-19.85 13.85-36.694 13.85-36.694s-2.781-1.474-8.867-3.531c-8.875-3-27-6.5-51.547-6.875-29.387-.449-54.21 5.395-67.151 11.025-5.581-2.304-11.489-4.348-17.697-5.884-12.56-3.108-24.673-3.588-32.771-3.444-18.167.322-30.521 2.991-39.474 5.993-.946.317-7.247 2.85-9.383 4.287-.577.388-.747.667-.747.667s.025.633.468 1.957c.871 2.601 2.47 6.146 4.114 9.337.318.613.354.97.354.97s-.536.329-1.25.689c-2.478 1.253-6.528 3.096-8.113 4.511-.313.279-.852.751-.863.928-.013.214.507 1.752 1.489 3.529 2.565 4.642 5.445 9.623 15.438 19.69 2.243 2.26 8.687 10.905 10.896 13.37.827.923 1.475 1.662 2.037 2.312-16.022-2.386-30.821-3.991-46.717-3.991-13.826 0-24.617 1.201-29.125 1.798v12.852c1.381-.21 13.221-1.932 29.125-1.932 20.042 0 38.613 2.737 60.599 6.354 7.943 2.857 16.361 6.224 23.737 10.064 0 0-.942-1.127 0 0 1.418 8.345 8.731 27.31 12.767 35.896.74 1.575 2.59 5.11 2.59 5.11s2.952 1.071 4.274 1.553c2.147.782 4.317 1.436 14.063 4.064 12.579 3.394 48.329 7.894 68.272 3.653 1.981-.421 2.648-.901 2.648-.901s-.021-1.132-.251-2.168c-.446-2.007-1.237-5.399-2.922-10.818-.271-.869-1.126-2.547-1.41-3.354 12.12-.291 23.553-1.97 34.335-5.214 5.635 3.643 8.911 5.578 12.652 7.404 5.136 2.507 7.448 3.179 7.974 3.404.318.137.339.141.683.034 11.189-3.464 23.806-10.955 28.446-14.867 0 0-2.368-2.828-5.261-5.655-1.842-1.8-6.558-5.703-9.231-8.008 2.46-1.743 5.453-4.002 8.077-6.217 1.08.616 15.89 8.432 25.408 11.779 11.467 4.033 24.009 6.465 28.895 6.991 1.124.121 4.006.22 4.482.167.162-.018.422-.047.422-.047s.262-.557.459-1.14c.813-2.401 1.873-8.006 2.167-13.192 18.153-1.257 55.577-5.244 86.511-17.445v-14.09c-24.84 10.886-59.05 16.606-86.627 18.548zm-31.593-52.276c7.503-3.394 16.75-6.064 23.207-6.51.006 3.93-.187 6.762-.664 10.167-18.681 2.514-32.523 9.063-38.928 12.617-1.61-1.414-3.466-2.509-5.447-3.357 5.586-4.632 13.648-9.214 21.832-12.917zm14.614 30.797c.823 1.659 2.198 6.472 2.905 10.128-14.066-.756-21.317-2.074-29.578-3.957.456-1.361.603-2.76.809-4.179 7.207-.172 16.338-.837 25.864-1.992zm-27.576 8.529c8.663 1.985 16.103 3.361 31.017 4.131.858 3.904 1.383 6.812 1.421 10.237-3.429-.318-12.219-1.63-19.146-3.521-7.15-1.952-12.298-4.705-15.492-6.561.832-1.4 1.572-2.831 2.2-4.286zm27.277-11.011c-9.328 1.132-18.406 1.834-25.482 2.016.229-3.167-.129-4.879-.417-5.979.953-.202 23.344-4.93 30.49-5.805-.906 2.972-3.593 8.222-4.591 9.768zm-55.825 26.356c-.156-3.007-2.948-4.215-4.739-4.548 1.193-1.284 2.707-3.417 2.457-6.125 4.292-1.125 7.91.478 8.813 2.692 1.146 2.808-2.248 5.399-6.531 7.981zm-120.052 31.371c2.113 4.257 3.729 7.154 4.934 9.133-3.118-.626-6.791-1.435-10.525-2.353-1.329-2.282-3.165-5.666-4.62-9.231-1.173-2.875-2.759-6.693-3.528-9.093 2.257 1.103 4.661 2.245 7.226 3.425 1.125.518 2.268 1.012 3.419 1.496.718 1.846 2.128 4.678 3.094 6.623zm130.22-54.335c2.592-1.709 3.926-4.342 3.576-7.61 4.266.546 5 3 5.289 3.993.727 2.491-.023 6.679-1.565 7.524 0 0-1.675-4.366-7.3-3.907zm-5.595 10.312c1.729-1.438 3.438-3.813 3.941-7.808 0 0 4.833-1.089 6.34 1.683 2.073 3.813-1.76 9.146-5.677 10.938-.716-3.008-3.042-4.293-4.604-4.813zm-7.646-.355c-.249-.576-1.875-2.791-4.667-3.249 4.417-1.708 6.042-6.875 4.542-9.875 2.958-1.083 9.432 1.019 9.208 6.072-.083 1.881-1.294 7.171-9.083 7.052zm-9.611 21.191c2.694-3.857 1.177-7.962.861-8.908 3.459-1.541 6.794-2.336 8.164-.874 2.415 2.577.604 5.678-9.025 9.782zm-25.903-.227c2.347-.922 3.932-2.739 5.001-4.58 0 0 7.113-.912 8.745 4.915.764 2.727.179 7.129-10.37 9.276.971-4.241.034-7.595-3.376-9.611zm-13.236 7.079l.258-.167c3.492-2.458 3.806-6.328 3.815-6.414 1.514-.15 9.127.299 9.927 4.155 1.026 4.947-.584 7.717-10.417 8.967.708-3.292-.75-5.583-3.583-6.541zm-65-1.709c2.833-.104 5.084-2.834 5.521-4.917 4.248 1.506 9.625 4.172 7.389 8.137-2.138 3.792-10.077-1.074-12.91-3.22zm-13.417-6.722c3.065-.6 7.125-3.695 7.5-9.133 5.04 1.365 11.625 4.875 8.417 11.448-1.587 3.255-6.924 4.053-15.917-2.315zm131.833-40.611c8.461-1.138 9.727 2.606 9.67 4.599-.077 2.675-2.015 4.819-3.765 5.486-2.196-3.377-4.446-4.085-7.405-4.585 1.834-1.584 1.875-4.292 1.5-5.5zm-15.208 16.958c-1.417-2.5-3.208-3.875-4.875-4.458 1.896-.677 5.209-2.875 6-6.974 0 0 7.042.058 7.777 4.582.257 1.578-1.152 7.1-8.902 6.85zm-8.354 11.55h-.005v.001c-.137.008-.287 0-.431.002-.376-5.354-3.827-7.556-5.138-8.483 2.512-1.444 3.939-3.773 4.469-6.396 4.542-.174 7.91 3.031 7.91 7 0 2.061-.947 4.58-2.413 5.969-.929.88-2.069 1.77-4.392 1.907zm-11.02 6.283c.291-4.083-2.125-6.417-4.27-7.808 2.52-1.025 4.269-2.984 5.061-5.617 3.208-.116 7.417 2.498 7.417 7.291 0 5.125-5.917 6.842-8.208 6.134zm-14.738 5.099c-.54-2.008-1.055-3.348-3.055-4.807 3.375-1.458 5.459-4.291 5.917-7.333 0 0 10.188-.271 9.26 7.06-.739 5.839-7.572 5.981-12.122 5.08zm-16.638 4.214c2.125-.813 5.417-3.937 5.333-8.604 2.987.039 9.434.485 8.917 6.604-.187 2.206-1.813 7.125-10.688 6.203-.849-1.819-1.749-3.266-3.562-4.203zm-10.579-9.73c2.625-.592 4.96-2.224 6.158-4.887 8.01.967 7.796 7.054 6.859 9.067-1.453 3.121-4.582 4.57-10.896 3.32.339-2.248-.104-5.708-2.121-7.5zm-15.213 20.792c3.042-2.313 3.742-5.156 3.876-6.958.002-.023-.002.023 0 0 6.04.333 10.353 2.833 8.561 7.026-.383.898-2.437 3.599-12.437-.068zm-13.213-11.378c2.818-.31 5.88-3.247 6.616-5.794 5.952 1.047 8.863 5.419 8.084 10.126-.745 4.496-4.007 8.233-13.964 4.79.087-.136 0 0 0 0 2.28-1.691 2.869-6.032-.736-9.122zm-7.404-3.869c-.153-2.003-.278-3.878-2.507-5.961 3.354-.604 6.666-2.708 7.874-7.125 8.313 1.583 6.875 8.785 6.172 10.663-2.005 5.358-7.903 4.35-11.539 2.423zm87.701-28.752c-.267-2.039-1.459-4-2.959-4.958 2.625-1.208 4.626-4.5 2.731-7.853 9.261-1.322 8.808 4.202 8.686 6.123-.281 4.437-5.416 7.146-8.458 6.688zm-8.958 7.416c-.173-1.296-1.042-5.125-4.868-6.691 1.909-1.1 3.492-2.725 4.284-5.142 6.042.042 7.344 2.635 7.25 5.979-.103 3.671-3.572 6.323-6.666 5.854zm-12.876 6.708c-.291-1.499-1.25-3.208-2.793-4.131.521-.185 4.835-2.411 5.509-7.888 3.784-.73 8.491 1.946 7.851 6.519-.316 2.25-2.275 7.208-10.567 5.5zm-14.677 7.813c-.589-1.158-1.205-2.454-2.531-3.396 3.438-.813 6.542-3.875 6.815-8.186 6.685-.606 9.31 3.831 7.682 7.524-.895 2.033-3.809 5.901-11.966 4.058zm-8.74-6.042c.459-2.521-.291-5.646-3.001-7.815 3.169-.331 4.961-2.331 6.023-4.772 5.276.629 8.313 4.816 7.485 8.111-.607 2.417-3.376 6.755-10.507 4.476zm-13.208 4.188c.228-1.702 0-5.208-2.051-7.378 3.051-.539 5.342-2.539 6.685-4.757 6.892 1.543 6.942 6.424 5.97 9.176-1.416 4.009-6.917 4.882-10.604 2.959zm-14.833 3.916c.166-1.515.167-4.625-1.875-7.313 2.688-.563 6.125-2.625 7.322-5.323 8.74 2.386 7.375 9.465 6.214 11.02-4.286 5.741-10.927 2.335-11.661 1.616zm63.958-30.583c.032-1.992-.517-4.633-2.934-6.008 6.684-1.159 9.444-.275 10.007.841 1.86 3.691-2.281 6.584-7.073 5.167zm-9.958 6.209c-.5-1.625-1.625-3.208-3.313-4.167 1.854-.708 4.521-3.792 3.162-7.432 4.042-.076 8.476.772 7.934 6.17-.405 4.037-4.427 6.069-7.783 5.429zm-13.085 8.378c-.915-2.545-2.588-3.786-3.646-4.695 3.981-1.309 5.981-4.176 7.106-6.364 0 0 4.563-1.611 6.708 2.055.747 1.277 1.457 5.229-2.388 8.188-2.028 1.562-3.655.691-7.78.816zm-9.102-7.254c.188-3.25-.42-5.092-1.438-6.563 3.792-.27 5.964-3.479 5.964-6.237 5.379.944 6.634 6.293 5.703 8.55-1.417 3.438-5.61 5.693-10.229 4.25zm-11.646 4.917c.583-1.917.54-4.506-.375-6.625-.844-1.955-2.75-4.167-4.25-4.833 2.083-.042 4.271-.583 6.75-2.417 6.271 2.083 8.235 5.221 7.125 9.638-.625 2.487-3.579 6.379-9.25 4.237zm5.208-21.167c4.973.624 8.792 2.542 8.25 4.875-.993 4.275-7.292 2.125-9.833.333 1.018-1.397 1.833-2.958 1.583-5.208zm19.125 9.938c-.208-4.854-3.28-6.604-3.28-6.604 10.528-.948 11.188.166 10.49 3.078-.93 3.877-7.21 3.526-7.21 3.526zm-29.696-14.544c10.78 2.28 7.849 7.22 7.466 8.082-1.457 3.275-5.728 4.692-9.478 3.65.456-3.015-.542-6.417-2.542-8.25 2.458-.084 4.208-1.834 4.554-3.482zm-2.922 15.22c2.688.767 7.91 3.928 5.629 10.857-1.028 3.122-5.177 5.611-11.344 3.111.917-3.291-.25-7.625-2.167-9.5 3.042.085 6.292-1.874 7.882-4.468zm54.743-18.665c-1.972-.04-3.63.072-5.195 0-12.555-.574-22.555 1.551-28.233-.696-3.242-1.283-5.957-2.585-8.372-3.734 6.73-1.214 15.7-2.35 26.089-2.459 7.068-.072 14.008.216 20.727.836-1.574 2.361-3.266 4.493-5.016 6.053zm-54.626 3.696c-1.538 2.268-6.026.733-8.701-.864.074-.209 0 0 0 0 .619-1.489.953-4.155.328-6.03 9.374 3.249 8.937 6.062 8.373 6.894zm-9.468 1.199c6.237 2.04 8.814 6.434 7.924 10.637-1.081 5.103-7.039 6.061-10.581 4.353.28-1.684.563-6.958-3.625-10.208 3.126-.938 4.969-2.932 6.282-4.782zm-3.578 17.784c5.839 2.247 5.63 9.08 4.201 11.237-1.688 2.547-6.154 5.447-11.945 2.802.104-2.417-1.083-6.167-3.021-7.917 3.741-.009 8.125-1.941 10.765-6.122zm11.193 35.339c-.124-1.737-.271-4.139-2.771-6.341 3.083-.542 6.125-3.126 7.054-5.538 8.055.308 7.257 7.62 6.078 9.624-1.831 3.107-5.09 3.955-10.361 2.255zm85.698-43.811c.114 3.469-3.938 4-3.938 4-1.893-1.095-3.864-2.156-7.906-2.37.084-2.286-.754-4.13-1.096-4.671 11.367-1.539 12.878 1.163 12.94 3.041zm-22.714-22.617c-7.2-.713-14.655-1.057-22.241-.979-12.327.13-22.712 1.683-29.782 3.125-4.15-2.128-7.269-4.016-10.384-5.973 6.978-1.539 18.053-3.39 31.411-3.53 14.81-.166 26.375 1.241 33.661 2.498-.816 1.617-1.71 3.262-2.665 4.859zm-86.786 6.617c1.5-.313 5.906-2.344 5.281-7.448 3.099.644 6.911 2.677 8.677 5.273 1.118 1.644 1.281 3.843.705 5.833-.997 3.444-3.391 4.792-5.257 5.269-2.604.663-4.481.165-6.252-.773-.016-2.812-.965-5.861-3.154-8.154zm2.982 10.671c4.653 1.195 10.468 5.872 7.185 12.441-2.843 5.69-10.476 5.895-14.261 3.441-.083-3.542-1.375-6.256-2.292-7.625 5.25-.459 8.583-4.042 9.368-8.257zm-7.335 18.656c3.447.329 10.701 8.672 4.446 14.518-3.296 3.081-8.286 1.185-12.911-1.503-.307-1.732-1.182-3.232-2.139-4.496 0 0 7.677.257 10.604-8.519zm-18.113 6.995c6.06 1.022 8.491 8.592 6.122 12.335-3.612 5.707-10.179 5.42-16.792-2.146 4.855-.542 9.48-4.417 10.67-10.189zm54.819 25.876c1.595-.646 2.984-2.114 3.968-3.785.013-.021.083-.006.205-.014 5.922-.389 11.785 2.617 10.443 9.007-.354 1.686-2.028 6.087-12.96 3.8 1.661-1.421 2.605-6.112-1.656-9.008zm17.178 2.896c3.416-.583 9.334-.749 9.786 2.352.198 1.362.214 5.398-12.127 4.369 2.812-2.375 2.421-5.806 2.341-6.721zm38.038-5.062c1.212-3.271-.371-7.938-4.819-9.813 1.865-1.083 3.47-2.603 4.532-5.009 2.875-.708 6.172-.001 7.28 1.45 3.386 4.434 1.79 10.705-6.993 13.372zm9.541-14.801c-.787-.978-2.246-1.812-3.746-2.187 2.917-2.291 4.042-5.991 3.709-9.491 7.551-.53 8.631 3.53 8.416 5.042-.451 3.179-4.142 6.26-8.379 6.636zm-6.522-59.045c-7.343-1.301-19.332-2.819-34.823-2.66-15.209.16-27.538 2.51-34.361 4.152-2.166-1.367-4.477-2.809-7.25-4.421-.96-.558-1.955-1.139-2.966-1.729 6.34-1.672 20.612-4.819 38.821-5.01 20.081-.219 35.551 2.313 42.995 4.033-.62 1.61-1.44 3.552-2.416 5.635zm-88.713 5.283c.677.984 1.013 2.505.656 3.667-.438 1.427-3.313 4.396-9.802 1.528.583-3.25.302-7.32-2.568-10.593 7.066 1.411 10.894 4.206 11.714 5.398zm-9.914 7.607c4.07.81 10.177 3.798 8.404 11.851-.932 4.23-5.164 5.301-5.458 5.375-1.233.309-4.363.615-7.75-2.25.313-2.333-.875-7.271-4.673-9.833 0 0-.214-.008 0 0 3.172.125 7.485-1.062 9.477-5.143zm-5.193 17.91c.061.032-.062-.031 0 0 3.347 1.399 5.381 3.94 6.236 6.841.519 1.762.894 4.874-.919 7.421-4.431 6.224-12.047 3.736-14.288 2.023-.016-2.803-.829-5.99-2.474-7.594 4.521-.333 9.583-2.625 11.445-8.691zm-19.941 6.288c10.517 3.32 8.548 12.482 7.038 15.32-1.896 3.563-8.667 9.417-17.253.973 5.669-2.473 9.555-8.486 10.215-16.293zm77.881-56.854c20.118-.291 40.521 3.142 50.683 6.268 0 0-.703 3.328-1.522 5.502-7.513-1.756-23.349-4.386-43.886-4.172-21.208.223-37.21 4.409-41.817 5.753-3.532-2.043-8.079-3.789-12.133-5.927 12.139-3.771 31.303-7.165 48.675-7.424zm-62.481 17.132c7.375 2.042 8.971 7.875 8.221 12.5-.933 5.751-7.219 6.286-10.381 4.827.083-.143.01.005.083-.143 2.006-4.059 3.577-8.684 2.077-17.184zm-5.113 21.209c3.854.146 10.542 6.708 5.854 14.458-1.085 1.793-7.688 7-15.943.308-.01-2.494-.034-5.253-.777-7.368 4.045-1.597 7.839-3.709 10.866-7.398zm-39.538 28.179c-4.251-1.408-8.997-3.531-13.461-7.596-6.812-6.2-7.343-6.501-10.667-10.5-2.836-3.412-7.605-9.878-10.214-12.377-4.827-4.623-9.577-8.825-11.827-13.498 0 0 5.124-2.782 7.172-5.313.189-.233.392-.359.229-.872-1.025-3.753-3.434-7.548-3.608-9.157 5.083-2.034 23.923-5.365 39.45-5.365 7.652 0 20.988 2.027 25.552 3.9 4.707 1.932 7.852 5.889 8.822 9.327 1.728 6.118.634 9.827-2.526 14.375-1.076 1.549-5.839 6.417-11.792 9.025-.115.05-.245.109-.344.189 0 0 .081.279.124.468 1.964 8.631 1.269 14.377-.036 18.048-2.252 6.333-7.189 11.997-16.874 9.346zm30.408 48.416c-2.456-4.477-6.034-14.588-8.089-22.031 3.649 2.132 8.008 4.521 13.239 7.152.799 2.644 2.695 7.617 4.309 11.572 1.114 2.729 2.42 5.318 3.579 7.434-4.877-1.281-9.598-2.71-13.038-4.127zm30.299 7.981c-1.108-1.617-3.62-5.654-6.643-11.743-.553-1.113-1.064-2.246-1.537-3.361 3.365 1.299 6.822 2.464 10.354 3.486.512 1.028 1.647 2.942 2.286 4.025 2.268 3.847 4.243 6.749 5.777 8.83-2.383-.165-4.664-.385-6.729-.664-.888-.12-2.087-.315-3.508-.573zm13.529 1.427c-1.569-1.991-4.571-6.199-7.482-11.139-.197-.334-.385-.667-.569-.998 3.69.967 7.446 1.789 11.245 2.458 2.346 3.964 4.94 8.046 6.482 10.112-3.179.049-6.477-.286-9.676-.433zm12.769.351c-1.347-1.704-3.922-5.583-6.333-9.498 3.836.587 7.705 1.026 11.581 1.31.707 1.733 3.067 6.446 3.067 7.913-2.302.27-5.513.17-8.315.275zm84.577-18.988c-2.923 1.79-6.692 3.32-8.663 3.787-2.839-.91-5.214-2.57-6.965-3.754 2.631-1.257 8.381-4.453 8.867-4.734 1.998 1.212 4.384 2.699 6.478 4.418l.283.283zm62.119-12.085c-4.984-.302-13.616-2.315-18.776-4.283-5.746-2.191-15.604-6.955-22.098-10.461 1.651-1.936 3.222-3.962 4.625-6.06 3.295 1.919 8.658 4.807 16.174 6.859 7.253 1.98 16.562 3.361 20.007 3.633.259 3.677.349 7.307.068 10.312zm.135-50.61c-7.194.75-31.252 5.815-32.298 6.036-.709-1.775-1.244-2.71-2.159-3.823 6.383-3.475 19.356-9.443 36.723-11.896-.459 3.72-1.357 6.979-2.266 9.683z"/>
    <g transform="translate(-76.208 242.005)">
      <circle r="1.37" cy="348.302" cx="375.159"/>
      <path d="M408.242 362.424s-1.117-1.986-4.294-5.06c2.773-.7 5.581-1.693 8.305-2.953 3.789 1.588 8.926 1.984 8.926 1.984 4.835-1.927 6.909-5.851 6.909-5.851s-1.928-1.229-5.934-2.243c1.56-.757 3.364-2.765 3.958-3.47 1.28.544 4.258 1.414 7.396 1.512 5.033.157 8.86-1.571 8.86-1.571s.001-3.084-2.508-6.578c-1.352-1.882-2.35-2.816-3.329-3.544-.216-.16-.462-.343-.607-.531.276-1.104.566-2.919.518-5.237-.11-5.174-1.505-6.985-1.505-6.985s-1 .198-1.635.478c-.61.269-7.678 3.125-11.839 11.035-4.38-.368-8.463.261-10.613.873-.038-5.033-1.287-8.053-2.1-9.699-.043-.087-.151-.287-.151-.287s-.144-.052-.311-.059c-1.267-.053-16.539 1.262-25.622 11.178-11.682 4.082-17.743 11.037-18.878 13.071-.115.207-.303.747-.303.747s.848.685 2.204 1.321c-.86 1.101-1.032 2.088-1.032 2.088.78.899 3.483 2.624 7.393 3.293.882.151 1.745.409 2.849.764 2.294.739 5.435 1.752 11.131 2.032 4.054 4.269 7.398 5.636 7.398 5.636s5.074.921 13.313-1.35c.873-.241 1.501-.594 1.501-.594zm15.739-11.111c-1.047 1.189-2.059 1.836-3.49 2.424-1.833-.042-3.438-.364-4.968-.928 3.369-1.81 4.387-2.618 4.387-2.618 1.875.291 4.004 1.099 4.071 1.122zm-29.832 10.603c-.466-.323-2.683-1.776-3.916-3.103 2.393.146 5.821-.125 10.503-.765 1.12.761 1.759 1.42 3.028 2.933-1.363.518-6.146 1.341-9.615.935zm-26.202-9.977c.852-.877 1.21-1.77 1.28-2.007.072-.244.103-.385.103-.385s-.304-.244-.453-.328c-.283-.16-.916-.532-1.783-.814 0 0 .06.022 0 0 .698-.757 3.364-4.488 11.174-8.389 1.732-.579 4.088-.687 5.125 2.05.732 1.934-1.029 3.849-1.664 4.628 1.161.305 3.146 1.118 3.225 3.384.13 3.761-2.953 5.671-5.689 5.162-1.442-.332-2.571-.695-3.57-1.017-1.159-.373-2.159-.695-3.258-.859-2.254-.335-4.123-1.114-4.49-1.425zm38.845-24.613c.331.732 1.667 3.445 1.333 7.799-.367.125-2.045.68-2.232.756-5.643-1.631-12.726-2.881-18.027-1.432 6.759-5.324 16.382-7.228 18.926-7.123zm-1.19 11.167l.415.102.373-.138c.059-.022 5.986-2.415 11.915-2.612 4.496-.149 7.728.938 8.224 2.39.625 1.832-1.727 5.507-6.911 8.964-11.325 7.551-20.509 9.926-34.794 8.848 4.177-2.735 3.677-8.631.303-10.38 2.624-2.438.374-7-1.555-7.5 4.011-1.5 11.595-2.917 22.03.326zm27.66-13.112c.488.869.557 2.408.581 3.556.042 1.976-.172 3.482-.442 4.558-.168.672-.358 1.505-.358 1.505s.948.793 1.417 1.125c2.417 1.708 4.206 3.617 5.187 7.114-1.071.455-4.298.951-6.843.728-1.758-.156-4.219-.636-5.005-1.207 1.323-1.998 1.724-3.803 1.189-5.365-.509-1.491-1.887-2.594-4.065-3.239-.257-.082-.519-.156-.784-.224 3.403-5.515 7.471-7.963 9.123-8.551z"/>
    </g>
    <g transform="translate(-76.208 242.005)">
      <circle r="1.37" cy="521.328" cx="324.52802"/>
      <path d="M357.611 535.45s-1.117-1.986-4.294-5.06c2.773-.7 5.581-1.692 8.305-2.952 3.789 1.588 8.926 1.983 8.926 1.983 4.835-1.927 6.909-5.851 6.909-5.851s-1.928-1.229-5.934-2.244c1.56-.757 3.364-2.765 3.958-3.47 1.28.544 4.258 1.413 7.396 1.512 5.033.157 8.86-1.571 8.86-1.571s.001-3.084-2.508-6.578c-1.352-1.882-2.35-2.815-3.329-3.544-.216-.16-.462-.343-.607-.53.276-1.104.566-2.92.518-5.238-.11-5.174-1.505-6.984-1.505-6.984s-1 .198-1.635.479c-.61.269-7.678 3.125-11.839 11.035-4.38-.369-8.463.26-10.613.873-.038-5.033-1.287-8.054-2.1-9.699-.043-.088-.151-.287-.151-.287s-.144-.052-.311-.059c-1.267-.053-16.539 1.262-25.622 11.178-11.682 4.082-17.743 11.037-18.878 13.071-.115.206-.303.747-.303.747s.848.686 2.204 1.32c-.86 1.102-1.032 2.088-1.032 2.088.78.899 3.483 2.625 7.393 3.293.882.151 1.745.409 2.849.764 2.294.74 5.435 1.752 11.131 2.032 4.054 4.269 7.398 5.636 7.398 5.636s5.074.922 13.313-1.35c.873-.24 1.501-.594 1.501-.594zm15.74-11.111c-1.047 1.189-2.059 1.836-3.49 2.424-1.833-.041-3.438-.363-4.968-.928 3.369-1.81 4.387-2.617 4.387-2.617 1.874.291 4.003 1.097 4.071 1.121zm-29.832 10.603c-.466-.324-2.683-1.777-3.916-3.104 2.393.146 5.821-.125 10.503-.766 1.12.762 1.759 1.42 3.028 2.934-1.363.518-6.147 1.343-9.615.936zm-26.203-9.976c.852-.877 1.21-1.77 1.28-2.008.072-.243.103-.385.103-.385s-.304-.244-.453-.328c-.283-.16-.916-.531-1.783-.814 0 0 .06.022 0 0 .698-.757 3.364-4.488 11.174-8.389 1.732-.578 4.088-.687 5.125 2.051.732 1.934-1.029 3.849-1.664 4.629 1.161.305 3.146 1.117 3.225 3.384.13 3.761-2.953 5.671-5.689 5.162-1.442-.331-2.571-.695-3.57-1.017-1.159-.373-2.159-.695-3.258-.859-2.254-.336-4.122-1.116-4.49-1.426zm38.845-24.613c.331.731 1.667 3.445 1.333 7.799-.367.125-2.045.68-2.232.756-5.643-1.631-12.726-2.881-18.027-1.432 6.759-5.325 16.382-7.229 18.926-7.123zm-1.19 11.166l.415.103.373-.138c.059-.021 5.986-2.415 11.915-2.611 4.496-.15 7.728.938 8.224 2.389.625 1.832-1.727 5.508-6.911 8.965-11.325 7.551-20.509 9.926-34.794 8.848 4.177-2.734 3.677-8.631.303-10.38 2.624-2.438.374-7.001-1.555-7.5 4.011-1.503 11.595-2.919 22.03.324zm27.66-13.112c.488.869.557 2.408.581 3.556.042 1.976-.172 3.481-.442 4.558-.168.673-.358 1.506-.358 1.506s.948.793 1.417 1.125c2.417 1.709 4.206 3.617 5.187 7.113-1.071.455-4.298.951-6.843.729-1.758-.156-4.219-.636-5.005-1.207 1.323-1.998 1.724-3.803 1.189-5.365-.509-1.49-1.887-2.594-4.065-3.238-.257-.082-.519-.156-.784-.225 3.403-5.516 7.471-7.964 9.123-8.552z"/>
    </g>
    <g transform="translate(-76.208 242.005)">
      <circle r="1.37" cy="583.63397" cx="412.18201"/>
      <path d="M445.265 597.756s-1.117-1.986-4.294-5.06c2.773-.7 5.581-1.692 8.305-2.952 3.789 1.588 8.926 1.983 8.926 1.983 4.835-1.927 6.909-5.851 6.909-5.851s-1.928-1.229-5.934-2.244c1.56-.757 3.364-2.765 3.958-3.47 1.28.544 4.258 1.413 7.396 1.512 5.033.157 8.86-1.571 8.86-1.571s.001-3.084-2.508-6.578c-1.352-1.882-2.35-2.815-3.329-3.544-.216-.16-.462-.343-.607-.53.276-1.104.566-2.92.518-5.238-.11-5.174-1.505-6.984-1.505-6.984s-1 .198-1.635.479c-.61.269-7.678 3.125-11.839 11.035-4.38-.369-8.463.26-10.613.873-.038-5.033-1.287-8.054-2.1-9.699-.043-.088-.151-.287-.151-.287s-.144-.052-.311-.059c-1.267-.053-16.539 1.262-25.622 11.178-11.682 4.082-17.743 11.037-18.878 13.071-.115.206-.303.747-.303.747s.848.686 2.204 1.32c-.86 1.102-1.032 2.088-1.032 2.088.78.899 3.483 2.625 7.393 3.293.882.151 1.745.409 2.849.764 2.294.74 5.435 1.752 11.131 2.032 4.054 4.269 7.398 5.636 7.398 5.636s5.074.922 13.313-1.35c.873-.241 1.501-.594 1.501-.594zm15.739-11.111c-1.047 1.189-2.059 1.836-3.49 2.424-1.833-.041-3.438-.363-4.968-.928 3.369-1.81 4.387-2.617 4.387-2.617 1.875.29 4.004 1.097 4.071 1.121zm-29.832 10.603c-.466-.324-2.683-1.777-3.916-3.104 2.393.146 5.821-.125 10.503-.766 1.12.762 1.759 1.42 3.028 2.934-1.363.518-6.146 1.342-9.615.936zm-26.202-9.977c.852-.877 1.21-1.77 1.28-2.008.072-.243.103-.385.103-.385s-.304-.244-.453-.328c-.283-.16-.916-.531-1.783-.814 0 0 .06.022 0 0 .698-.757 3.364-4.488 11.174-8.389 1.732-.578 4.088-.687 5.125 2.051.732 1.934-1.029 3.849-1.664 4.629 1.161.305 3.146 1.117 3.225 3.384.13 3.761-2.953 5.671-5.689 5.162-1.442-.331-2.571-.695-3.57-1.017-1.159-.373-2.159-.695-3.258-.859-2.255-.336-4.123-1.115-4.49-1.426zm38.844-24.613c.331.731 1.667 3.445 1.333 7.799-.367.125-2.045.68-2.232.756-5.643-1.631-12.726-2.881-18.027-1.432 6.759-5.324 16.383-7.228 18.926-7.123zm-1.19 11.166l.415.103.373-.138c.059-.021 5.986-2.415 11.915-2.611 4.496-.15 7.728.938 8.224 2.389.625 1.832-1.727 5.508-6.911 8.965-11.325 7.551-20.509 9.926-34.794 8.848 4.177-2.734 3.677-8.631.303-10.38 2.624-2.438.374-7.001-1.555-7.5 4.011-1.502 11.595-2.918 22.03.324zm27.66-13.111c.488.869.557 2.408.581 3.556.042 1.976-.172 3.481-.442 4.558-.168.673-.358 1.506-.358 1.506s.948.793 1.417 1.125c2.417 1.709 4.206 3.617 5.187 7.113-1.071.455-4.298.951-6.843.729-1.758-.156-4.219-.636-5.005-1.207 1.323-1.998 1.724-3.803 1.189-5.365-.509-1.49-1.887-2.594-4.065-3.238-.257-.082-.519-.156-.784-.225 3.403-5.516 7.472-7.964 9.123-8.552z"/>
    </g>
    <g transform="translate(-76.208 242.005)">
      <circle r="1.37" cy="405.97198" cx="452.073"/>
      <path d="M497.726 405.431c-1.19.613-2.181.87-3.825 1.151-1.776-.453-2.461-.859-3.824-1.753 3.69-1.005 4.298-1.279 4.298-1.279 1.76.706 3.29 1.843 3.351 1.881zm-21.375 9.406c-.549-.145-3.226-.545-4.74-1.581 2.299-.679 3.447-1.252 7.63-3.452 1.313.333 2.421.735 4.13 1.724-1.105.953-4.028 2.713-7.02 3.309zm10.178-9.182c3.334 2.401 7.117 3.375 7.117 3.375 5.15-.237 8.332-3.294 8.332-3.294s-1.33-1.588-4.805-3.521c.617-.234 2.388-1.318 3.019-1.708 0 0 3.327 2.599 6.019 3.731 4.642 1.953 9.117 1.996 9.117 1.996s1.107-3.162.019-7.323c-.586-2.242-1.184-3.471-1.836-4.503-.145-.227-1.1-1.936-1.199-2.152.518-1.013 1.209-2.716 1.684-4.986 1.058-5.066.106-7.144.106-7.144s-1.019-.032-1.7.098c-.655.125-8.185 1.316-14.02 8.086-4.759-1.595-8.027-1.932-13.109-2.367-.99-4.935-4.205-9.083-5.314-10.544-.059-.078-.223-.253-.223-.253s-.203.025-.537.127c-1.363.417-14.33 5.484-21.12 17.078l-.012-.032c-11.142 5.384-16.373 12.983-17.27 15.132-.091.219-.216.777-.216.777s.92.583 2.34 1.061c-.729 1.192-.788 2.192-.788 2.192.878.804 3.76 2.211 7.72 2.431.893.049 1.779.207 2.916.435 2.363.474 5.614 1.31 11.29.753 1.461-.144 3.573-.483 3.573-.483 5.267 2.629 8.878 2.774 8.878 2.774s6.948-1.472 10.907-6.013c0 0-1.356-1.503-5.391-3.308.638-.542 1.893-1.719 1.893-1.719s1.006-.159 2.61-.696zm25.156-22.513c.279.957 0 2.471-.234 3.595-.404 1.934-.952 3.354-1.458 4.341-.314.617-.688 1.386-.688 1.386s1.14 2.098 1.458 2.576c1.644 2.461 2.426 4.759 2.29 8.5-1.164.041-4.07-.654-6.366-1.775-1.585-.776-3.71-2.107-4.238-2.922 1.951-1.39 2.807-3.617 2.655-5.262-.123-1.34-1.36-2.776-3.338-3.896-.231-.138-.54-.263-.783-.389 4.558-4.605 8.96-5.953 10.702-6.154zm-66.364 27.264c.745-.968 1-1.896 1.043-2.14.044-.251.059-.394.059-.394s-.33-.208-.488-.274c-.299-.127-.97-.424-1.863-.606 0 0 .061.015 0 0 .607-.833 2.831-4.842 10.147-9.605 1.655-.771 3.982-1.147 5.324 1.455.947 1.838-.585 3.94-1.127 4.787 1.188.172 3.254.753 3.589 2.995.557 3.723-2.289 5.971-5.065 5.775-1.472-.165-2.635-.398-3.663-.604-1.194-.239-2.225-.445-3.335-.483-2.277-.078-4.221-.639-4.621-.906zm17.233 2.163c3.839-3.192 2.672-8.993-.879-10.348 2.329-2.72-.424-6.998-2.397-7.274 3.838-3.202 11.772-5.946 23.153-6.429.063-.003 6.555-.172 12.301 1.305 4.354 1.12 7.17 2.594 7.502 4.092.494 2.23-3.497 5.565-9.435 7.457-6.79 2.163-9.986 2.366-9.986 2.366s-3.21 3.148-8.07 5.596c-3.922 1.973-8.9 3.235-12.189 3.235zm10.711-25.633c-5.259.884-9.882 2.671-9.882 2.671 4.629-5.955 13.05-10.759 15.293-11.302.519.613 2.832 3.422 3.707 7.701 0-.001-3.821.039-9.118.93z"/>
    </g>
    <g transform="translate(-76.208 242.005)">
      <circle r="1.37" cy="492.54501" cx="424.67099"/>
      <path d="M469.05 503.266c-1.304.303-2.326.305-3.99.174-1.61-.877-2.174-1.439-3.274-2.642 3.825-.064 4.481-.18 4.481-.18 1.531 1.116 2.735 2.595 2.783 2.648zm-23.032 3.85c-.497-.275-2.991-1.322-4.205-2.7 2.396-.091 3.649-.364 8.245-1.465 1.19.646 2.165 1.308 3.578 2.688-1.306.651-4.573 1.637-7.618 1.477zm12.126-6.392c2.641 3.149 6.067 5.024 6.067 5.024 5.05 1.04 8.887-1.14 8.887-1.14s-.899-1.865-3.79-4.596c.656-.076 2.639-.69 3.348-.913 0 0 2.584 3.34 4.913 5.099 4.018 3.036 8.346 4.181 8.346 4.181s1.852-2.793 1.821-7.094c-.017-2.316-.292-3.654-.671-4.816-.083-.255-.588-2.146-.632-2.38.752-.854 1.841-2.334 2.86-4.419 2.273-4.648 1.861-6.897 1.861-6.897s-.978-.283-1.67-.323c-.665-.041-8.257-.74-15.579 4.384-4.221-2.719-7.304-3.851-12.122-5.524.255-5.026-1.839-9.839-2.555-11.528-.037-.091-.153-.299-.153-.299s-.202-.026-.552-.009c-1.422.066-15.239 1.783-24.677 11.347l-.002-.035c-12.126 2.476-19.066 8.551-20.466 10.414-.142.19-.4.701-.4.701s.748.791 2.007 1.604c-1.001.975-1.303 1.931-1.303 1.931.651.995 3.098 3.066 6.882 4.257.853.268 1.674.639 2.719 1.141 2.174 1.039 5.119 2.652 10.757 3.51 1.451.221 3.583.413 3.583.413 4.455 3.846 7.92 4.874 7.92 4.874s7.097.285 12.053-3.142c0 0-.945-1.79-4.409-4.533.752-.368 2.258-1.2 2.258-1.2s1.01.095 2.699-.032zm29.925-15.621c.035.996-.609 2.394-1.111 3.427-.868 1.774-1.75 3.015-2.483 3.847-.456.521-1.009 1.175-1.009 1.175s.589 2.314.779 2.856c.986 2.79 1.181 5.209.126 8.803-1.138-.248-3.783-1.637-5.732-3.29-1.345-1.143-3.077-2.954-3.387-3.875 2.231-.865 3.609-2.813 3.869-4.445.211-1.328-.636-3.026-2.276-4.598-.19-.19-.459-.389-.663-.568 5.552-3.345 10.151-3.568 11.887-3.332zm-71.033 10.076c.96-.755 1.437-1.59 1.538-1.818.104-.23.153-.366.153-.366s-.269-.283-.406-.386c-.258-.197-.834-.651-1.655-1.049 0 0 .055.03 0 0 .794-.656 3.937-3.994 12.201-6.807 1.794-.341 4.142-.133 4.801 2.721.465 2.015-1.539 3.674-2.271 4.361 1.109.46 2.969 1.53 2.74 3.787-.378 3.745-3.688 5.224-6.331 4.349-1.386-.521-2.456-1.034-3.401-1.487-1.099-.523-2.047-.979-3.114-1.288-2.187-.638-3.934-1.66-4.255-2.017zm16.169 6.34c4.506-2.148 4.805-8.057 1.697-10.244 2.927-2.064 1.313-6.888-.532-7.643 4.509-2.156 12.874-2.863 24.023-.526.063.013 6.396 1.447 11.6 4.295 3.944 2.158 6.311 4.279 6.264 5.813-.07 2.283-4.761 4.532-10.981 4.902-7.113.424-10.261-.167-10.261-.167s-3.886 2.262-9.199 3.435c-4.288.948-9.423.946-12.611.135zm16.694-22.205c-5.314-.438-10.235.154-10.235.154 5.953-4.631 15.298-7.213 17.605-7.186.353.721 1.902 4.014 1.697 8.377.001.001-3.713-.902-9.067-1.345z"/>
    </g>
  </g>
</svg>
